<mxfile host="app.diagrams.net" modified="2021-04-30T11:49:07.243Z" agent="5.0 (Windows NT 10.0; Win64; x64) AppleWebKit/537.36 (KHTML, like Gecko) Chrome/90.0.4430.93 Safari/537.36" etag="BVDCmacW3krF57lJlZOT" version="14.5.10" type="github">
  <diagram id="HJgjnrjeih3DE0BV_bX-" name="Page-1">
    <mxGraphModel dx="1550" dy="836" grid="1" gridSize="10" guides="1" tooltips="1" connect="1" arrows="1" fold="1" page="1" pageScale="1" pageWidth="827" pageHeight="1169" math="0" shadow="0">
      <root>
        <mxCell id="0" />
        <mxCell id="1" parent="0" />
        <mxCell id="kNoHBtEfP0MBLEmATaEI-2" value="" style="rounded=1;whiteSpace=wrap;html=1;fillColor=#ffe6cc;strokeColor=#d79b00;" vertex="1" parent="1">
          <mxGeometry x="280" y="80" width="520" height="480" as="geometry" />
        </mxCell>
        <mxCell id="kNoHBtEfP0MBLEmATaEI-3" value="" style="rounded=1;whiteSpace=wrap;html=1;fillColor=#e1d5e7;strokeColor=#9673a6;" vertex="1" parent="1">
          <mxGeometry x="80" y="80" width="160" height="480" as="geometry" />
        </mxCell>
        <mxCell id="kNoHBtEfP0MBLEmATaEI-4" value="&lt;b&gt;&lt;font style=&quot;font-size: 20px&quot;&gt;OVH&lt;/font&gt;&lt;/b&gt;" style="text;html=1;strokeColor=none;fillColor=none;align=center;verticalAlign=middle;whiteSpace=wrap;rounded=0;" vertex="1" parent="1">
          <mxGeometry x="180" y="50" width="40" height="20" as="geometry" />
        </mxCell>
        <mxCell id="kNoHBtEfP0MBLEmATaEI-5" value="&lt;b&gt;&lt;font style=&quot;font-size: 20px&quot;&gt;AWS&lt;/font&gt;&lt;/b&gt;" style="text;html=1;strokeColor=none;fillColor=none;align=center;verticalAlign=middle;whiteSpace=wrap;rounded=0;" vertex="1" parent="1">
          <mxGeometry x="520" y="50" width="40" height="20" as="geometry" />
        </mxCell>
        <mxCell id="kNoHBtEfP0MBLEmATaEI-6" value="&lt;b&gt;demo.c408.party&lt;/b&gt;" style="rounded=0;whiteSpace=wrap;html=1;fillColor=#dae8fc;strokeColor=#6c8ebf;" vertex="1" parent="1">
          <mxGeometry x="100" y="120" width="120" height="80" as="geometry" />
        </mxCell>
        <mxCell id="kNoHBtEfP0MBLEmATaEI-7" value="" style="rounded=0;whiteSpace=wrap;html=1;fillColor=#dae8fc;strokeColor=#6c8ebf;" vertex="1" parent="1">
          <mxGeometry x="100" y="240" width="120" height="250" as="geometry" />
        </mxCell>
        <mxCell id="kNoHBtEfP0MBLEmATaEI-10" value="&lt;b&gt;KOPS Master&lt;/b&gt;" style="rounded=0;whiteSpace=wrap;html=1;fillColor=#fff2cc;strokeColor=#d6b656;" vertex="1" parent="1">
          <mxGeometry x="110" y="280" width="100" height="40" as="geometry" />
        </mxCell>
        <mxCell id="kNoHBtEfP0MBLEmATaEI-11" value="" style="rounded=0;whiteSpace=wrap;html=1;fillColor=#fff2cc;strokeColor=#d6b656;" vertex="1" parent="1">
          <mxGeometry x="110" y="340" width="100" height="130" as="geometry" />
        </mxCell>
        <mxCell id="kNoHBtEfP0MBLEmATaEI-13" value="&lt;b&gt;ProxMox&lt;/b&gt;" style="text;html=1;strokeColor=none;fillColor=none;align=center;verticalAlign=middle;whiteSpace=wrap;rounded=0;" vertex="1" parent="1">
          <mxGeometry x="130" y="250" width="60" height="20" as="geometry" />
        </mxCell>
        <mxCell id="kNoHBtEfP0MBLEmATaEI-15" value="VictoriaMetrics" style="rounded=1;whiteSpace=wrap;html=1;" vertex="1" parent="1">
          <mxGeometry x="116.25" y="350" width="87.5" height="20" as="geometry" />
        </mxCell>
        <mxCell id="kNoHBtEfP0MBLEmATaEI-18" value="Grafana" style="rounded=1;whiteSpace=wrap;html=1;" vertex="1" parent="1">
          <mxGeometry x="125" y="380" width="70" height="20" as="geometry" />
        </mxCell>
        <mxCell id="kNoHBtEfP0MBLEmATaEI-19" value="Loki" style="rounded=1;whiteSpace=wrap;html=1;" vertex="1" parent="1">
          <mxGeometry x="125" y="410" width="70" height="20" as="geometry" />
        </mxCell>
        <mxCell id="kNoHBtEfP0MBLEmATaEI-20" value="?" style="rounded=1;whiteSpace=wrap;html=1;" vertex="1" parent="1">
          <mxGeometry x="125" y="440" width="70" height="20" as="geometry" />
        </mxCell>
        <mxCell id="kNoHBtEfP0MBLEmATaEI-21" value="" style="rounded=0;whiteSpace=wrap;html=1;fillColor=#f8cecc;strokeColor=#b85450;" vertex="1" parent="1">
          <mxGeometry x="320" y="110" width="440" height="100" as="geometry" />
        </mxCell>
        <mxCell id="kNoHBtEfP0MBLEmATaEI-26" value="&lt;b&gt;EC2&lt;/b&gt;" style="text;html=1;strokeColor=none;fillColor=none;align=center;verticalAlign=middle;whiteSpace=wrap;rounded=0;" vertex="1" parent="1">
          <mxGeometry x="520" y="90" width="40" height="20" as="geometry" />
        </mxCell>
        <mxCell id="kNoHBtEfP0MBLEmATaEI-32" value="Demo WebApp" style="text;html=1;strokeColor=none;fillColor=none;align=center;verticalAlign=middle;whiteSpace=wrap;rounded=0;" vertex="1" parent="1">
          <mxGeometry x="115" y="170" width="90" height="20" as="geometry" />
        </mxCell>
        <mxCell id="kNoHBtEfP0MBLEmATaEI-34" value="" style="shape=loopLimit;whiteSpace=wrap;html=1;fillColor=#dae8fc;strokeColor=#6c8ebf;" vertex="1" parent="1">
          <mxGeometry x="330" y="120" width="420" height="80" as="geometry" />
        </mxCell>
        <mxCell id="kNoHBtEfP0MBLEmATaEI-35" value="AutoScaling Group" style="text;html=1;strokeColor=none;fillColor=none;align=center;verticalAlign=middle;whiteSpace=wrap;rounded=0;" vertex="1" parent="1">
          <mxGeometry x="480" y="120" width="120" height="20" as="geometry" />
        </mxCell>
        <mxCell id="kNoHBtEfP0MBLEmATaEI-36" value="K8S Master" style="rounded=1;whiteSpace=wrap;html=1;" vertex="1" parent="1">
          <mxGeometry x="340" y="140" width="50" height="50" as="geometry" />
        </mxCell>
        <mxCell id="kNoHBtEfP0MBLEmATaEI-37" value="K8S Node 1" style="rounded=1;whiteSpace=wrap;html=1;" vertex="1" parent="1">
          <mxGeometry x="430" y="140" width="50" height="50" as="geometry" />
        </mxCell>
        <mxCell id="kNoHBtEfP0MBLEmATaEI-38" value="K8S Node 2" style="rounded=1;whiteSpace=wrap;html=1;" vertex="1" parent="1">
          <mxGeometry x="490" y="140" width="50" height="50" as="geometry" />
        </mxCell>
        <mxCell id="kNoHBtEfP0MBLEmATaEI-39" value="K8S Node .." style="rounded=1;whiteSpace=wrap;html=1;" vertex="1" parent="1">
          <mxGeometry x="550" y="140" width="50" height="50" as="geometry" />
        </mxCell>
        <mxCell id="kNoHBtEfP0MBLEmATaEI-40" value="K8S Node .." style="rounded=1;whiteSpace=wrap;html=1;" vertex="1" parent="1">
          <mxGeometry x="610" y="140" width="50" height="50" as="geometry" />
        </mxCell>
        <mxCell id="kNoHBtEfP0MBLEmATaEI-41" value="K8S Node N" style="rounded=1;whiteSpace=wrap;html=1;" vertex="1" parent="1">
          <mxGeometry x="670" y="140" width="50" height="50" as="geometry" />
        </mxCell>
        <mxCell id="kNoHBtEfP0MBLEmATaEI-42" value="" style="rounded=0;whiteSpace=wrap;html=1;fillColor=#f8cecc;strokeColor=#b85450;" vertex="1" parent="1">
          <mxGeometry x="320" y="240" width="440" height="50" as="geometry" />
        </mxCell>
        <mxCell id="kNoHBtEfP0MBLEmATaEI-43" value="&lt;b&gt;S3&lt;/b&gt;" style="text;html=1;strokeColor=none;fillColor=none;align=center;verticalAlign=middle;whiteSpace=wrap;rounded=0;" vertex="1" parent="1">
          <mxGeometry x="520" y="220" width="40" height="20" as="geometry" />
        </mxCell>
        <mxCell id="kNoHBtEfP0MBLEmATaEI-44" value="" style="rounded=0;whiteSpace=wrap;html=1;" vertex="1" parent="1">
          <mxGeometry x="330" y="255" width="120" height="20" as="geometry" />
        </mxCell>
        <mxCell id="kNoHBtEfP0MBLEmATaEI-45" value="" style="rounded=0;whiteSpace=wrap;html=1;" vertex="1" parent="1">
          <mxGeometry x="480" y="255" width="120" height="20" as="geometry" />
        </mxCell>
        <mxCell id="kNoHBtEfP0MBLEmATaEI-46" value="" style="rounded=0;whiteSpace=wrap;html=1;" vertex="1" parent="1">
          <mxGeometry x="630" y="255" width="120" height="20" as="geometry" />
        </mxCell>
        <mxCell id="kNoHBtEfP0MBLEmATaEI-47" value="" style="rounded=0;whiteSpace=wrap;html=1;fillColor=#f8cecc;strokeColor=#b85450;" vertex="1" parent="1">
          <mxGeometry x="320" y="330" width="440" height="50" as="geometry" />
        </mxCell>
        <mxCell id="kNoHBtEfP0MBLEmATaEI-48" value="&lt;b&gt;Route 53&lt;/b&gt;" style="text;html=1;strokeColor=none;fillColor=none;align=center;verticalAlign=middle;whiteSpace=wrap;rounded=0;" vertex="1" parent="1">
          <mxGeometry x="510" y="310" width="60" height="20" as="geometry" />
        </mxCell>
      </root>
    </mxGraphModel>
  </diagram>
</mxfile>
